<?xml version="1.0" standalone="no"?>
<!DOCTYPE svg PUBLIC "-//W3C//DTD SVG 20010904//EN"
 "http://www.w3.org/TR/2001/REC-SVG-20010904/DTD/svg10.dtd">
<svg version="1.0" xmlns="http://www.w3.org/2000/svg"
 width="1114.000000pt" height="1280.000000pt" viewBox="0 0 1114.000000 1280.000000"
 preserveAspectRatio="xMidYMid meet">
<metadata>
Created by potrace 1.15, written by Peter Selinger 2001-2017
</metadata>
<g transform="translate(0.000000,1280.000000) scale(0.100000,-0.100000)"
fill="#000000" stroke="none">
<path d="M1680 12789 c-751 -85 -1387 -614 -1600 -1331 -58 -194 -74 -311 -74
-533 0 -117 5 -233 12 -280 69 -426 261 -799 558 -1085 87 -83 201 -174 276
-219 l37 -22 103 89 c136 117 431 420 592 607 671 781 1292 1727 1476 2250
l31 90 -43 38 c-58 51 -187 136 -290 190 -318 170 -718 247 -1078 206z"/>
<path d="M3246 12189 c-80 -265 -120 -366 -229 -585 -324 -646 -978 -1505
-1755 -2306 l-113 -116 78 -30 c245 -94 559 -138 813 -113 141 14 317 48 347
67 29 19 307 329 438 489 347 425 697 951 895 1345 42 83 42 85 36 160 -31
339 -176 700 -391 975 -79 101 -113 133 -119 114z"/>
<path d="M5363 10991 c-65 -22 -126 -64 -162 -110 -15 -20 -157 -238 -315
-484 -187 -293 -316 -483 -371 -548 -143 -171 -154 -213 -71 -292 85 -83 218
-154 585 -311 189 -82 375 -163 414 -182 124 -59 229 -43 319 48 42 42 649
981 705 1089 57 110 31 202 -81 288 -101 78 -738 480 -792 500 -68 26 -160 27
-231 2z"/>
<path d="M3920 10893 c0 -14 -145 -275 -236 -425 -297 -491 -670 -987 -1048
-1396 -43 -46 -76 -88 -74 -92 2 -5 122 -82 268 -171 l265 -162 17 24 c10 13
65 89 122 168 164 227 365 480 438 552 131 131 263 199 398 206 82 5 123 -3
214 -42 16 -7 18 -5 11 26 -27 123 8 202 173 388 80 90 162 203 162 223 0 5
14 27 32 49 23 28 29 42 20 48 -6 4 -176 142 -377 306 -202 165 -371 302 -376
303 -5 2 -9 0 -9 -5z"/>
<path d="M6773 10295 c-65 -20 -139 -72 -176 -123 -19 -26 -141 -227 -272
-447 -131 -220 -273 -455 -317 -523 -130 -202 -143 -246 -85 -307 35 -38 115
-76 424 -200 212 -85 287 -124 349 -178 87 -77 89 -96 29 -353 -60 -257 -66
-357 -25 -451 27 -61 54 -57 139 21 43 39 169 196 255 318 37 51 118 149 181
218 112 121 121 135 396 594 155 258 291 492 302 520 15 41 18 69 15 136 -5
94 -30 158 -89 225 -37 42 -827 520 -904 547 -59 21 -162 22 -222 3z"/>
<path d="M3989 9467 c-100 -42 -174 -95 -275 -199 -130 -134 -211 -235 -336
-421 -56 -84 -136 -197 -178 -252 -230 -303 -748 -1222 -879 -1559 -64 -165
-69 -198 -42 -284 47 -144 169 -325 611 -907 472 -621 650 -877 845 -1211 115
-198 314 -493 525 -780 304 -412 349 -476 386 -550 l36 -71 -72 -404 c-123
-693 -188 -1088 -255 -1554 -82 -572 -98 -745 -93 -990 3 -168 6 -195 25 -237
l22 -48 498 1 c274 0 1138 4 1921 8 1390 7 1423 8 1442 27 16 16 21 39 26 124
3 58 14 155 25 215 35 195 40 323 38 1050 -2 702 1 816 36 1265 30 376 25 362
172 522 63 68 112 135 167 230 114 193 121 203 231 313 64 64 111 122 132 160
37 70 77 204 131 440 74 317 84 367 76 374 -12 10 -576 364 -728 458 -66 40
-125 73 -131 73 -6 0 -24 -13 -40 -30 -28 -29 -58 -38 -81 -22 -6 4 -27 33
-47 64 -26 41 -55 69 -104 102 -64 42 -347 300 -526 479 -132 132 -212 174
-427 227 -63 15 -163 42 -223 59 -313 92 -1150 261 -1189 240 -24 -13 -23 -50
2 -98 27 -54 435 -561 914 -1136 36 -43 66 -85 66 -93 0 -7 40 -111 89 -230
49 -119 110 -274 135 -344 119 -331 140 -386 171 -452 18 -39 40 -98 50 -131
24 -83 86 -200 140 -262 25 -29 79 -73 121 -99 65 -40 94 -68 94 -88 0 -4 -45
-40 -101 -81 -70 -52 -112 -77 -140 -81 -47 -8 -121 -54 -150 -96 -49 -68 -47
-535 7 -1668 18 -382 17 -462 -9 -487 -17 -17 -19 -17 -33 1 -10 15 -14 50
-14 130 0 105 -23 459 -36 556 -3 25 -13 65 -20 89 -11 31 -16 105 -18 245 -3
144 -11 258 -30 401 -31 237 -78 529 -105 652 -10 48 -22 127 -25 175 -7 99
-17 132 -43 144 -10 4 -129 10 -265 13 -216 5 -249 8 -265 23 -22 22 -18 25
53 43 149 39 416 203 577 355 97 92 124 133 113 172 -37 148 -1274 1990 -1654
2464 -46 58 -100 115 -121 128 -51 32 -147 69 -318 123 -111 34 -173 60 -248
104 -119 70 -180 92 -328 120 -110 20 -172 43 -196 73 -20 24 -6 33 77 52 74
17 79 20 147 89 170 174 270 470 211 630 -22 59 -26 129 -9 146 10 10 21 6 52
-14 81 -53 250 -208 448 -409 l201 -205 70 -6 c135 -13 358 20 590 88 232 67
494 172 550 221 76 65 146 252 171 459 12 96 14 256 5 291 -3 11 -34 39 -68
62 -79 52 -407 215 -646 322 -102 45 -205 91 -230 102 -234 105 -817 346
-1048 432 -64 25 -125 48 -136 52 -17 7 -17 5 -2 -25 9 -17 13 -31 8 -31 -5 0
-47 23 -93 51 -46 29 -97 60 -114 70 -32 19 -207 69 -240 69 -11 0 -45 -11
-76 -23z"/>
<path d="M8050 9069 c-64 -13 -140 -52 -182 -96 -55 -57 -1406 -1996 -1435
-2060 -34 -74 -35 -182 -3 -266 42 -110 79 -138 395 -287 154 -73 323 -155
375 -184 l95 -51 105 0 c94 0 110 3 155 27 28 14 66 41 87 60 36 33 1321 1658
1371 1733 37 57 61 156 53 224 -15 123 -28 140 -400 509 -357 354 -379 372
-485 392 -61 11 -68 11 -131 -1z"/>
<path d="M5765 8970 c-3 -5 -1 -10 4 -10 6 0 11 5 11 10 0 6 -2 10 -4 10 -3 0
-8 -4 -11 -10z"/>
<path d="M9187 7869 c-25 -24 -373 -438 -775 -920 -507 -609 -733 -887 -742
-915 -17 -52 -15 -125 5 -164 24 -46 444 -477 485 -497 53 -27 135 -23 192 7
31 16 331 300 869 819 664 642 826 803 842 840 26 60 26 135 -1 186 -12 22
-151 171 -309 331 -317 320 -348 344 -464 352 -57 4 -58 4 -102 -39z"/>
<path d="M6490 7445 c-79 -23 -731 -203 -855 -236 -124 -32 -280 -48 -349 -35
-48 9 -89 46 -132 119 -47 82 -80 115 -120 123 -68 13 -158 -41 -170 -101 -8
-43 11 -102 45 -139 117 -127 680 -477 903 -561 68 -25 89 -16 151 68 30 39
174 212 321 382 148 171 274 325 282 343 24 54 7 62 -76 37z"/>
<path d="M9439 6259 c-90 -84 -245 -231 -344 -328 -99 -97 -207 -201 -240
-231 -33 -30 -119 -116 -190 -191 -72 -75 -146 -148 -165 -162 -19 -14 -32
-28 -30 -30 5 -5 824 -508 1195 -735 139 -85 233 -136 256 -139 175 -25 526
312 699 671 80 167 112 328 78 402 -11 24 -186 173 -563 480 -320 261 -514
414 -524 414 -5 0 -83 -68 -172 -151z"/>
<path d="M10765 5143 c-79 -225 -231 -443 -420 -601 -49 -41 -91 -78 -93 -82
-3 -9 263 -185 301 -200 45 -16 137 -12 182 9 56 26 94 70 237 276 161 232
162 234 163 321 0 109 -27 146 -195 261 -74 51 -138 92 -141 93 -4 0 -19 -35
-34 -77z"/>
</g>
</svg>
